<svg xmlns="http://www.w3.org/2000/svg" width="13" height="14.857" viewBox="0 0 13 14.857">
  <path id="Icon_awesome-calendar-alt" data-name="Icon awesome-calendar-alt" d="M0,13.464a1.393,1.393,0,0,0,1.393,1.393H11.607A1.393,1.393,0,0,0,13,13.464V5.571H0ZM9.286,7.777a.349.349,0,0,1,.348-.348h1.161a.349.349,0,0,1,.348.348V8.938a.349.349,0,0,1-.348.348H9.634a.349.349,0,0,1-.348-.348Zm0,3.714a.349.349,0,0,1,.348-.348h1.161a.349.349,0,0,1,.348.348v1.161a.349.349,0,0,1-.348.348H9.634a.349.349,0,0,1-.348-.348ZM5.571,7.777a.349.349,0,0,1,.348-.348H7.08a.349.349,0,0,1,.348.348V8.938a.349.349,0,0,1-.348.348H5.92a.349.349,0,0,1-.348-.348Zm0,3.714a.349.349,0,0,1,.348-.348H7.08a.349.349,0,0,1,.348.348v1.161A.349.349,0,0,1,7.08,13H5.92a.349.349,0,0,1-.348-.348ZM1.857,7.777a.349.349,0,0,1,.348-.348H3.366a.349.349,0,0,1,.348.348V8.938a.349.349,0,0,1-.348.348H2.205a.349.349,0,0,1-.348-.348Zm0,3.714a.349.349,0,0,1,.348-.348H3.366a.349.349,0,0,1,.348.348v1.161A.349.349,0,0,1,3.366,13H2.205a.349.349,0,0,1-.348-.348Zm9.75-9.634H10.214V.464A.466.466,0,0,0,9.75,0H8.821a.466.466,0,0,0-.464.464V1.857H4.643V.464A.466.466,0,0,0,4.179,0H3.25a.466.466,0,0,0-.464.464V1.857H1.393A1.393,1.393,0,0,0,0,3.25V4.643H13V3.25A1.393,1.393,0,0,0,11.607,1.857Z" fill="#bf772f"/>
</svg>
