<svg class="icon-svg" viewBox="0 0 51.994 59.422">
    <path id="Icon_awesome-calendar-alt" data-name="Icon awesome-calendar-alt" d="M0,53.851a5.572,5.572,0,0,0,5.571,5.571H46.424a5.572,5.572,0,0,0,5.571-5.571V22.283H0ZM37.139,31.1a1.4,1.4,0,0,1,1.393-1.393h4.642A1.4,1.4,0,0,1,44.567,31.1v4.642a1.4,1.4,0,0,1-1.393,1.393H38.532a1.4,1.4,0,0,1-1.393-1.393Zm0,14.856a1.4,1.4,0,0,1,1.393-1.393h4.642a1.4,1.4,0,0,1,1.393,1.393V50.6a1.4,1.4,0,0,1-1.393,1.393H38.532A1.4,1.4,0,0,1,37.139,50.6ZM22.283,31.1a1.4,1.4,0,0,1,1.393-1.393h4.642A1.4,1.4,0,0,1,29.711,31.1v4.642a1.4,1.4,0,0,1-1.393,1.393H23.676a1.4,1.4,0,0,1-1.393-1.393Zm0,14.856a1.4,1.4,0,0,1,1.393-1.393h4.642a1.4,1.4,0,0,1,1.393,1.393V50.6a1.4,1.4,0,0,1-1.393,1.393H23.676A1.4,1.4,0,0,1,22.283,50.6ZM7.428,31.1A1.4,1.4,0,0,1,8.82,29.711h4.642A1.4,1.4,0,0,1,14.856,31.1v4.642a1.4,1.4,0,0,1-1.393,1.393H8.82a1.4,1.4,0,0,1-1.393-1.393Zm0,14.856A1.4,1.4,0,0,1,8.82,44.567h4.642a1.4,1.4,0,0,1,1.393,1.393V50.6a1.4,1.4,0,0,1-1.393,1.393H8.82A1.4,1.4,0,0,1,7.428,50.6Zm39-38.532H40.853V1.857A1.862,1.862,0,0,0,39,0H35.282a1.862,1.862,0,0,0-1.857,1.857V7.428H18.569V1.857A1.862,1.862,0,0,0,16.713,0H13a1.862,1.862,0,0,0-1.857,1.857V7.428H5.571A5.572,5.572,0,0,0,0,13v5.571H51.994V13A5.572,5.572,0,0,0,46.424,7.428Z"/>
</svg>